<?xml version="1.0" encoding="UTF-8" standalone="no"?>
<!-- Created with Inkscape (http://www.inkscape.org/) -->
<svg
   xmlns:svg="http://www.w3.org/2000/svg"
   xmlns="http://www.w3.org/2000/svg"
   version="1.0"
   width="180"
   height="104"
   viewBox="0 0 179.5 104.893"
   id="Layer_1"
   xml:space="preserve"><defs
   id="defs358">
	

		
		
		
		
		
		
		
		
		
		
		
		
		
		
		
		
		
		
		
		
		
		
		
		
		
		
		
		
		
		
		
		
		
		
		
		
		
		
		
		
		
		
		
		
		
		
		
		
		
		
		
		
		
		
		
		
		
		
		
		
		
		
		
		
		
		
		
			
		
		
		
		
		
		
		
		
		
		
			
		
		
		
		
		
		
		
		
		
		
		
		
		
		
		
		
		
		
		
		
			
		
		
		
		
		
		
		
		
		
		
		
		
		
		
		
		
		
		
			
		
		
		
		
		
		
		
		
		
		
		
		
		
		
		
		
		
		
		
		
		
		
		
		
		
		
		
		
		
		
		
		
		
		
		
		
		
		
		
			
		
		
		
			
		
		
		
		
		
		
		
		
		
		
		
		
		
		
		
		
	</defs>



<g
   transform="matrix(1.0087307,0,0,0.988812,-0.8517212,5.0548966e-3)"
   id="g5321"><g
     transform="matrix(-1,0,0,1,179.63511,0)"
     style="stroke:#3e3319"
     id="g5223"><path
       d="M 84.980138,42.985609 C 82.916138,43.113609 80.318379,44.911204 78.72,46.114 C 77.913336,46.721022 76.981849,47.104877 76.016,47.367 C 74.757601,47.708519 73.737624,47.230171 73.299,46.094 C 72.05194,42.863732 73.844,38.687 71.761,35.631 C 68.215,31.308 64.476,31.246 59.444,30.792 C 50.516,29.986 34.517294,29.940846 31.492258,31.362129 C 31.333779,31.436588 31.386851,31.737806 31.260726,31.744694 C 26.442626,32.007806 19.643,32.165 14.203,31.19 C 9.428,30.335 4.9559304,27.303143 0.5078125,27.893 C 0.19755544,27.934143 0.34428587,28.601076 0.5,28.893 C 3.4668484,34.455076 9.6923562,36.143 14.934678,38.893 C 14.872356,39.679674 14.858435,39.816234 15.008,40.235 C 16.632435,44.783234 21.967,45.143515 26,46.445258 C 26.241,47.014 26.282798,47.542241 26.604,47.839 C 27.964798,49.096241 30.273386,48.86 31.706193,50.06 C 31.381847,50.898488 31.657369,51.744214 32.277,52.134 C 33.956921,53.190775 36.437871,53.433386 38.422114,54.221386 C 38.489356,54.924386 38.67059,55.837209 39.274,56.125 C 41.282,57.082696 43.428533,57.274455 45.526129,57.143 C 47.375015,57.027132 46.726441,60.351416 51.065322,59.893 C 50.521644,63.48 54.563,64.383 57.302258,63.893 C 57.847515,65.978 60.604,66.082 62.385258,65.726 C 62.163038,66.325841 63.006858,67.456645 63.528,67.699 C 64.3967,68.102984 67.053,67.819 68.552258,66.893 C 69.043515,67.786 69.418824,68.749813 70.233,69.174 C 71.775824,69.977813 73.729515,68.289 75.052258,67.393 C 76.811,68.399 78.753,67.726 80.385258,66.726 C 81.549515,67.247 83.416788,67.261297 84.289788,67.768297"
       style="fill:#f6bc2b;fill-rule:evenodd;stroke:#3e3319;stroke-linecap:round"
       id="path5225" /><g
       style="stroke:#3e3319"
       id="g5227"><path
         d="M 15,38.893 C 23.539,40.353 32.693,40.05 41.5,39.643"
         style="fill:none;fill-rule:evenodd;stroke:#3e3319;stroke-linecap:round"
         id="path5229" /><path
         d="M 41.5,39.643 C 41.5,38.238 41.5,37.523 41.5,36.56"
         style="fill:none;fill-rule:evenodd;stroke:#3e3319;stroke-linecap:round"
         id="path5231" /><path
         d="M 41.5,39.643 C 42.917,40.187 44.638,40.546 45.25,42.143"
         style="fill:none;fill-rule:evenodd;stroke:#3e3319;stroke-linecap:round"
         id="path5233" /><path
         d="M 45.25,42.143 C 47.26,42.713 49.503,41.918 51.4,42.993"
         style="fill:none;fill-rule:evenodd;stroke:#3e3319;stroke-linecap:round"
         id="path5235" /><path
         d="M 51.4,42.993 C 52.405,41.988 53.157,41.236 54,40.393"
         style="fill:none;fill-rule:evenodd;stroke:#3e3319;stroke-linecap:round"
         id="path5237" /><path
         d="M 54,40.393 C 55.716,40.292 57.413,40.566 58.4,40.993"
         style="fill:none;fill-rule:evenodd;stroke:#3e3319;stroke-linecap:round"
         id="path5239" /><path
         d="M 52.5,36.143 C 52.599,37.819 53.413,38.903 54,40.393"
         style="fill:none;fill-rule:evenodd;stroke:#3e3319;stroke-linecap:round"
         id="path5241" /><path
         d="M 26,46.393 C 32.2,45.228 40.927,46.008 45.25,42.143"
         style="fill:none;fill-rule:evenodd;stroke:#3e3319;stroke-linecap:round"
         id="path5243" /><path
         d="M 58.4,40.993 C 58.467,41.26 58.533,41.526 58.6,41.793"
         style="fill:none;fill-rule:evenodd;stroke:#3e3319;stroke-linecap:round"
         id="path5245" /><path
         d="M 58.6,41.793 C 59.708,42.266 60.531,42.601 62,43.393"
         style="fill:none;fill-rule:evenodd;stroke:#3e3319;stroke-linecap:round"
         id="path5247" /><path
         d="M 61,38.393 C 60.241,39.152 59.363,40.03 58.4,40.993"
         style="fill:none;fill-rule:evenodd;stroke:#3e3319;stroke-linecap:round"
         id="path5249" /><path
         d="M 51.4,42.993 C 51.602,43.779 51.719,44.179 51.834,44.559"
         style="fill:none;fill-rule:evenodd;stroke:#3e3319;stroke-linecap:round"
         id="path5251" /><path
         d="M 51.833,44.56 C 51.964,44.616 52.147,44.671 52.333,44.727"
         style="fill:none;fill-rule:evenodd;stroke:#3e3319;stroke-linecap:round"
         id="path5253" /><path
         d="M 52.333,44.727 C 54.521,43.804 57.143,44.117 58.6,41.793"
         style="fill:none;fill-rule:evenodd;stroke:#3e3319;stroke-linecap:round"
         id="path5255" /><path
         d="M 31.667,50.06 C 38.502,48.959 45.864,48.697 51.834,44.56"
         style="fill:none;fill-rule:evenodd;stroke:#3e3319;stroke-linecap:round"
         id="path5257" /><path
         d="M 54,47.393 C 55.439,46.916 56.553,46.99 57.333,47.06"
         style="fill:none;fill-rule:evenodd;stroke:#3e3319;stroke-linecap:round"
         id="path5259" /><path
         d="M 57.333,47.06 C 58.917,45.881 60.708,44.984 62,43.393"
         style="fill:none;fill-rule:evenodd;stroke:#3e3319;stroke-linecap:round"
         id="path5261" /><path
         d="M 58,49.393 C 58.667,49.393 59.333,49.393 60,49.393"
         style="fill:none;fill-rule:evenodd;stroke:#3e3319;stroke-linecap:round"
         id="path5263" /><path
         d="M 63,43.393 C 62.667,43.393 62.333,43.393 62,43.393"
         style="fill:none;fill-rule:evenodd;stroke:#3e3319;stroke-linecap:round"
         id="path5265" /><path
         d="M 38.5,54.143 C 43.682,52.299 49.529,51.145 54,47.393"
         style="fill:none;fill-rule:evenodd;stroke:#3e3319;stroke-linecap:round"
         id="path5267" /><path
         d="M 54,47.393 C 53.6,46.63 53.029,45.728 52.333,44.726"
         style="fill:none;fill-rule:evenodd;stroke:#3e3319;stroke-linecap:round"
         id="path5269" /><line
         clip-rule="evenodd"
         x1="62.5"
         y1="51.893002"
         x2="62.5"
         y2="51.893002"
         id="line5271"
         style="fill:none;fill-rule:evenodd;stroke:#3e3319;stroke-linecap:round" /><path
         d="M 64.333,44.727 C 63.98,47.266 61.533,47.823 60,49.394"
         style="fill:none;fill-rule:evenodd;stroke:#3e3319;stroke-linecap:round"
         id="path5273" /><path
         d="M 45.5,57.143 C 50.376,56.211 55.508,53.725 58,49.393"
         style="fill:none;fill-rule:evenodd;stroke:#3e3319;stroke-linecap:round"
         id="path5275" /><path
         d="M 58,49.393 C 57.659,48.354 57.542,47.697 57.333,47.06"
         style="fill:none;fill-rule:evenodd;stroke:#3e3319;stroke-linecap:round"
         id="path5277" /><path
         d="M 65,54.393 C 65.333,54.393 65.667,54.393 66,54.393"
         style="fill:none;fill-rule:evenodd;stroke:#3e3319;stroke-linecap:round"
         id="path5279" /><path
         d="M 66.667,48.727 C 65.508,49.127 63.742,50.685 62.5,51.894"
         style="fill:none;fill-rule:evenodd;stroke:#3e3319;stroke-linecap:round"
         id="path5281" /><path
         d="M 51,59.893 C 55.604,58.894 59.054,55.02 62.5,51.893"
         style="fill:none;fill-rule:evenodd;stroke:#3e3319;stroke-linecap:round"
         id="path5283" /><path
         d="M 62.5,51.893 C 61.712,51.382 60.774,50.382 60,49.393"
         style="fill:none;fill-rule:evenodd;stroke:#3e3319;stroke-linecap:round"
         id="path5285" /><line
         clip-rule="evenodd"
         x1="69.5"
         y1="55.893002"
         x2="69.5"
         y2="55.893002"
         id="line5287"
         style="fill:none;fill-rule:evenodd;stroke:#3e3319;stroke-linecap:round" /><path
         d="M 69,50.393 C 67.79,51.45 66.702,52.936 66,54.393"
         style="fill:none;fill-rule:evenodd;stroke:#3e3319;stroke-linecap:round"
         id="path5289" /><path
         d="M 74.008637,51.496641 C 74.680637,53.382641 74.755,55.513 74,57.393"
         style="fill:none;fill-rule:evenodd;stroke:#3e3319;stroke-linecap:round"
         id="path5291" /><path
         d="M 84.157963,57.726729 C 83.519112,58.153974 81.60809,59.614794 80.582718,58.237195 C 80.169074,57.68146 79.140669,59.310075 76.854513,58.225542 C 75.771,57.889 75.029,57.729 74,57.393"
         style="fill:none;fill-rule:evenodd;stroke:#3e3319;stroke-linecap:round"
         id="path5293" /><path
         d="M 77.5,51.143 C 77.5,53.31 77.12589,55.476 76.834916,58.100245"
         style="fill:none;fill-rule:evenodd;stroke:#3e3319;stroke-linecap:round"
         id="path5295" /><path
         d="M 31.360379,32.192439 C 32.809379,36.651439 41.50838,36.333989 41.422729,36.517072 C 41.334465,36.705743 50.614556,35.903953 52.512878,36.143 C 55.407757,35.726 59.529,35.17 61,38.414464 C 61.877,38.734928 62.84953,39.047434 63.24,39.835 C 63.73353,40.830434 63.216,42.357 63.017171,43.393 C 63.478342,43.837 63.923342,44.282 64.384513,44.7265 C 66.249684,46.396 66.358,47.845 66.6665,48.748464 C 67.304,48.963928 68.154732,49.925324 69.017274,50.3935 C 69.936279,50.892324 70.958583,51.23218 72.008721,51.393 C 73.833467,51.672446 75.976611,51.246295 77.519255,51.124245 C 79.098047,50.999335 80.986745,50.966712 82.989567,51.009267"
         style="fill:none;fill-rule:evenodd;stroke:#3e3319;stroke-linecap:round"
         id="path5297" /><path
         d="M 72,51.393 C 71.307,52.975 70.877,54.729 69.5,55.893"
         style="fill:none;fill-rule:evenodd;stroke:#3e3319;stroke-linecap:round"
         id="path5299" /><path
         d="M 57.25,63.893 C 58.964,60.125 63.494,58.33 65,54.393"
         style="fill:none;fill-rule:evenodd;stroke:#3e3319;stroke-linecap:round"
         id="path5301" /><path
         d="M 65,54.393 C 64.246,53.639 63.405,52.798 62.5,51.893"
         style="fill:none;fill-rule:evenodd;stroke:#3e3319;stroke-linecap:round"
         id="path5303" /><path
         d="M 62.333,65.726 C 64.549,62.327 68.1,59.87 69.5,55.893"
         style="fill:none;fill-rule:evenodd;stroke:#3e3319;stroke-linecap:round"
         id="path5305" /><path
         d="M 69.5,55.893 C 68.617,55.234 67.265,54.938 66,54.393"
         style="fill:none;fill-rule:evenodd;stroke:#3e3319;stroke-linecap:round"
         id="path5307" /><path
         d="M 68.5,66.893 C 71.43,64.471 72.973,60.93 74,57.393"
         style="fill:none;fill-rule:evenodd;stroke:#3e3319;stroke-linecap:round"
         id="path5309" /><path
         d="M 74,57.393 C 72.292,57.009 70.601,56.7 69.5,55.893"
         style="fill:none;fill-rule:evenodd;stroke:#3e3319;stroke-linecap:round"
         id="path5311" /><line
         clip-rule="evenodd"
         x1="74"
         y1="57.393002"
         x2="74"
         y2="57.393002"
         id="line5313"
         style="fill:none;fill-rule:evenodd;stroke:#3e3319;stroke-linecap:round" /><path
         d="M 76.5,58.143 C 76.745,61.382 75.315,64.201 75,67.393"
         style="fill:none;fill-rule:evenodd;stroke:#3e3319;stroke-linecap:round"
         id="path5315" /><path
         d="M 81.957245,51.156648 C 81.624245,51.489648 81.622788,57.144322 80.5,57.893"
         style="fill:none;fill-rule:evenodd;stroke:#3e3319;stroke-linecap:round"
         id="path5317" /><path
         d="M 80.5,58.183974 C 80.387,61.121974 80.722,63.811 80.333,66.726"
         style="fill:none;fill-rule:evenodd;stroke:#3e3319;stroke-linecap:round"
         id="path5319" /></g></g><path
     d=""
     style="fill:none;fill-rule:evenodd;stroke:#000000;stroke-linecap:round"
     id="path37" /><path
     d=""
     style="fill:none;fill-rule:evenodd;stroke:#000000;stroke-linecap:round"
     id="path39" /><path
     d=""
     style="fill:none;fill-rule:evenodd;stroke:#000000;stroke-linecap:round"
     id="path43" /><path
     d=""
     style="fill:none;fill-rule:evenodd;stroke:#000000;stroke-linecap:round"
     id="path45" /><path
     d=""
     style="fill:none;fill-rule:evenodd;stroke:#000000;stroke-linecap:round"
     id="path63" /><path
     d=""
     style="fill:none;fill-rule:evenodd;stroke:#000000;stroke-linecap:round"
     id="path65" /><path
     d=""
     style="fill:none;fill-rule:evenodd;stroke:#000000;stroke-linecap:round"
     id="path67" /><path
     d=""
     style="fill:none;fill-rule:evenodd;stroke:#000000;stroke-linecap:round"
     id="path69" /><path
     d=""
     style="fill:none;fill-rule:evenodd;stroke:#000000;stroke-linecap:round"
     id="path71" /><path
     d=""
     style="fill:none;fill-rule:evenodd;stroke:#000000;stroke-linecap:round"
     id="path73" /><path
     d=""
     style="fill:none;fill-rule:evenodd;stroke:#000000;stroke-linecap:round"
     id="path75" /><path
     d=""
     style="fill:none;fill-rule:evenodd;stroke:#000000;stroke-linecap:round"
     id="path77" /><path
     d=""
     style="fill:none;fill-rule:evenodd;stroke:#000000;stroke-linecap:round"
     id="path79" /><g
     id="g5173"><path
       d="M 84,43.394 C 81.936,43.522 80.318379,44.911204 78.72,46.114 C 77.913336,46.721022 76.981849,47.104877 76.016,47.367 C 74.757601,47.708519 73.737624,47.230171 73.299,46.094 C 72.05194,42.863732 73.844,38.687 71.761,35.631 C 68.215,31.308 64.476,31.246 59.444,30.792 C 50.516,29.986 34.517294,29.940846 31.492258,31.362129 C 31.333779,31.436588 31.386851,31.737806 31.260726,31.744694 C 26.442626,32.007806 19.643,32.165 14.203,31.19 C 9.428,30.335 4.9559304,27.303143 0.5078125,27.893 C 0.19755544,27.934143 0.34428587,28.601076 0.5,28.893 C 3.4668484,34.455076 9.6923562,36.143 14.934678,38.893 C 14.872356,39.679674 14.858435,39.816234 15.008,40.235 C 16.632435,44.783234 21.967,45.143515 26,46.445258 C 26.241,47.014 26.282798,47.542241 26.604,47.839 C 27.964798,49.096241 30.273386,48.86 31.706193,50.06 C 31.381847,50.898488 31.657369,51.744214 32.277,52.134 C 33.956921,53.190775 36.437871,53.433386 38.422114,54.221386 C 38.489356,54.924386 38.67059,55.837209 39.274,56.125 C 41.282,57.082696 43.428533,57.274455 45.526129,57.143 C 47.375015,57.027132 46.726441,60.351416 51.065322,59.893 C 50.521644,63.48 54.563,64.383 57.302258,63.893 C 57.847515,65.978 60.604,66.082 62.385258,65.726 C 62.163038,66.325841 63.006858,67.456645 63.528,67.699 C 64.3967,68.102984 67.053,67.819 68.552258,66.893 C 69.043515,67.786 69.418824,68.749813 70.233,69.174 C 71.775824,69.977813 73.729515,68.289 75.052258,67.393 C 76.811,68.399 78.753,67.726 80.385258,66.726 C 81.549515,67.247 83.416788,67.261297 84.289788,67.768297"
       style="fill:#f6bc2b;fill-rule:evenodd;stroke:#3e3319;stroke-linecap:round;stroke-opacity:1"
       id="path31" /><g
       style="stroke:#3e3319"
       id="g5031"><path
         d="M 15,38.893 C 23.539,40.353 32.693,40.05 41.5,39.643"
         style="fill:none;fill-rule:evenodd;stroke:#3e3319;stroke-linecap:round"
         id="path89" /><path
         d="M 41.5,39.643 C 41.5,38.238 41.5,37.523 41.5,36.56"
         style="fill:none;fill-rule:evenodd;stroke:#3e3319;stroke-linecap:round"
         id="path91" /><path
         d="M 41.5,39.643 C 42.917,40.187 44.638,40.546 45.25,42.143"
         style="fill:none;fill-rule:evenodd;stroke:#3e3319;stroke-linecap:round"
         id="path95" /><path
         d="M 45.25,42.143 C 47.26,42.713 49.503,41.918 51.4,42.993"
         style="fill:none;fill-rule:evenodd;stroke:#3e3319;stroke-linecap:round"
         id="path97" /><path
         d="M 51.4,42.993 C 52.405,41.988 53.157,41.236 54,40.393"
         style="fill:none;fill-rule:evenodd;stroke:#3e3319;stroke-linecap:round"
         id="path99" /><path
         d="M 54,40.393 C 55.716,40.292 57.413,40.566 58.4,40.993"
         style="fill:none;fill-rule:evenodd;stroke:#3e3319;stroke-linecap:round"
         id="path101" /><path
         d="M 52.5,36.143 C 52.599,37.819 53.413,38.903 54,40.393"
         style="fill:none;fill-rule:evenodd;stroke:#3e3319;stroke-linecap:round"
         id="path103" /><path
         d="M 26,46.393 C 32.2,45.228 40.927,46.008 45.25,42.143"
         style="fill:none;fill-rule:evenodd;stroke:#3e3319;stroke-linecap:round"
         id="path105" /><path
         d="M 58.4,40.993 C 58.467,41.26 58.533,41.526 58.6,41.793"
         style="fill:none;fill-rule:evenodd;stroke:#3e3319;stroke-linecap:round"
         id="path109" /><path
         d="M 58.6,41.793 C 59.708,42.266 60.531,42.601 62,43.393"
         style="fill:none;fill-rule:evenodd;stroke:#3e3319;stroke-linecap:round"
         id="path111" /><path
         d="M 61,38.393 C 60.241,39.152 59.363,40.03 58.4,40.993"
         style="fill:none;fill-rule:evenodd;stroke:#3e3319;stroke-linecap:round"
         id="path113" /><path
         d="M 51.4,42.993 C 51.602,43.779 51.719,44.179 51.834,44.559"
         style="fill:none;fill-rule:evenodd;stroke:#3e3319;stroke-linecap:round"
         id="path115" /><path
         d="M 51.833,44.56 C 51.964,44.616 52.147,44.671 52.333,44.727"
         style="fill:none;fill-rule:evenodd;stroke:#3e3319;stroke-linecap:round"
         id="path117" /><path
         d="M 52.333,44.727 C 54.521,43.804 57.143,44.117 58.6,41.793"
         style="fill:none;fill-rule:evenodd;stroke:#3e3319;stroke-linecap:round"
         id="path119" /><path
         d="M 31.667,50.06 C 38.502,48.959 45.864,48.697 51.834,44.56"
         style="fill:none;fill-rule:evenodd;stroke:#3e3319;stroke-linecap:round"
         id="path123" /><path
         d="M 54,47.393 C 55.439,46.916 56.553,46.99 57.333,47.06"
         style="fill:none;fill-rule:evenodd;stroke:#3e3319;stroke-linecap:round"
         id="path125" /><path
         d="M 57.333,47.06 C 58.917,45.881 60.708,44.984 62,43.393"
         style="fill:none;fill-rule:evenodd;stroke:#3e3319;stroke-linecap:round"
         id="path127" /><path
         d="M 58,49.393 C 58.667,49.393 59.333,49.393 60,49.393"
         style="fill:none;fill-rule:evenodd;stroke:#3e3319;stroke-linecap:round"
         id="path129" /><path
         d="M 63,43.393 C 62.667,43.393 62.333,43.393 62,43.393"
         style="fill:none;fill-rule:evenodd;stroke:#3e3319;stroke-linecap:round"
         id="path131" /><path
         d="M 38.5,54.143 C 43.682,52.299 49.529,51.145 54,47.393"
         style="fill:none;fill-rule:evenodd;stroke:#3e3319;stroke-linecap:round"
         id="path135" /><path
         d="M 54,47.393 C 53.6,46.63 53.029,45.728 52.333,44.726"
         style="fill:none;fill-rule:evenodd;stroke:#3e3319;stroke-linecap:round"
         id="path137" /><line
         style="fill:none;fill-rule:evenodd;stroke:#3e3319;stroke-linecap:round"
         id="line139"
         y2="51.893002"
         x2="62.5"
         y1="51.893002"
         x1="62.5"
         clip-rule="evenodd" /><path
         d="M 64.333,44.727 C 63.98,47.266 61.533,47.823 60,49.394"
         style="fill:none;fill-rule:evenodd;stroke:#3e3319;stroke-linecap:round"
         id="path141" /><path
         d="M 45.5,57.143 C 50.376,56.211 55.508,53.725 58,49.393"
         style="fill:none;fill-rule:evenodd;stroke:#3e3319;stroke-linecap:round"
         id="path145" /><path
         d="M 58,49.393 C 57.659,48.354 57.542,47.697 57.333,47.06"
         style="fill:none;fill-rule:evenodd;stroke:#3e3319;stroke-linecap:round"
         id="path147" /><path
         d="M 65,54.393 C 65.333,54.393 65.667,54.393 66,54.393"
         style="fill:none;fill-rule:evenodd;stroke:#3e3319;stroke-linecap:round"
         id="path149" /><path
         d="M 66.667,48.727 C 65.508,49.127 63.742,50.685 62.5,51.894"
         style="fill:none;fill-rule:evenodd;stroke:#3e3319;stroke-linecap:round"
         id="path151" /><path
         d="M 51,59.893 C 55.604,58.894 59.054,55.02 62.5,51.893"
         style="fill:none;fill-rule:evenodd;stroke:#3e3319;stroke-linecap:round"
         id="path155" /><path
         d="M 62.5,51.893 C 61.712,51.382 60.774,50.382 60,49.393"
         style="fill:none;fill-rule:evenodd;stroke:#3e3319;stroke-linecap:round"
         id="path157" /><line
         style="fill:none;fill-rule:evenodd;stroke:#3e3319;stroke-linecap:round"
         id="line159"
         y2="55.893002"
         x2="69.5"
         y1="55.893002"
         x1="69.5"
         clip-rule="evenodd" /><path
         d="M 69,50.393 C 67.79,51.45 66.702,52.936 66,54.393"
         style="fill:none;fill-rule:evenodd;stroke:#3e3319;stroke-linecap:round"
         id="path161" /><path
         d="M 74.008637,51.496641 C 74.680637,53.382641 74.755,55.513 74,57.393"
         style="fill:none;fill-rule:evenodd;stroke:#3e3319;stroke-linecap:round"
         id="path167" /><path
         d="M 84.157963,57.726729 C 83.519112,58.153974 81.60809,59.614794 80.582718,58.237195 C 80.169074,57.68146 79.140669,59.310075 76.854513,58.225542 C 75.771,57.889 75.029,57.729 74,57.393"
         style="fill:none;fill-rule:evenodd;stroke:#3e3319;stroke-linecap:round"
         id="path163" /><path
         d="M 77.5,51.143 C 77.5,53.31 77.12589,55.476 76.834916,58.100245"
         style="fill:none;fill-rule:evenodd;stroke:#3e3319;stroke-linecap:round"
         id="path173" /><path
         d="M 31.360379,32.192439 C 32.809379,36.651439 41.50838,36.333989 41.422729,36.517072 C 41.334465,36.705743 50.614556,35.903953 52.512878,36.143 C 55.407757,35.726 59.529,35.17 61,38.414464 C 61.877,38.734928 62.84953,39.047434 63.24,39.835 C 63.73353,40.830434 63.216,42.357 63.017171,43.393 C 63.478342,43.837 63.923342,44.282 64.384513,44.7265 C 66.249684,46.396 66.358,47.845 66.6665,48.748464 C 67.304,48.963928 68.154732,49.925324 69.017274,50.3935 C 69.936279,50.892324 70.958583,51.23218 72.008721,51.393 C 73.833467,51.672446 75.976611,51.246295 77.519255,51.124245 C 79.098047,50.999335 80.496676,50.721677 82.499498,50.764232"
         style="fill:none;fill-rule:evenodd;stroke:#3e3319;stroke-linecap:round"
         id="path9" /><path
         d="M 72,51.393 C 71.307,52.975 70.877,54.729 69.5,55.893"
         style="fill:none;fill-rule:evenodd;stroke:#3e3319;stroke-linecap:round"
         id="path177" /><path
         d="M 57.25,63.893 C 58.964,60.125 63.494,58.33 65,54.393"
         style="fill:none;fill-rule:evenodd;stroke:#3e3319;stroke-linecap:round"
         id="path181" /><path
         d="M 65,54.393 C 64.246,53.639 63.405,52.798 62.5,51.893"
         style="fill:none;fill-rule:evenodd;stroke:#3e3319;stroke-linecap:round"
         id="path183" /><path
         d="M 62.333,65.726 C 64.549,62.327 68.1,59.87 69.5,55.893"
         style="fill:none;fill-rule:evenodd;stroke:#3e3319;stroke-linecap:round"
         id="path187" /><path
         d="M 69.5,55.893 C 68.617,55.234 67.265,54.938 66,54.393"
         style="fill:none;fill-rule:evenodd;stroke:#3e3319;stroke-linecap:round"
         id="path189" /><path
         d="M 68.5,66.893 C 71.43,64.471 72.973,60.93 74,57.393"
         style="fill:none;fill-rule:evenodd;stroke:#3e3319;stroke-linecap:round"
         id="path193" /><path
         d="M 74,57.393 C 72.292,57.009 70.601,56.7 69.5,55.893"
         style="fill:none;fill-rule:evenodd;stroke:#3e3319;stroke-linecap:round"
         id="path195" /><line
         style="fill:none;fill-rule:evenodd;stroke:#3e3319;stroke-linecap:round"
         id="line199"
         y2="57.393002"
         x2="74"
         y1="57.393002"
         x1="74"
         clip-rule="evenodd" /><path
         d="M 76.5,58.143 C 76.745,61.382 75.315,64.201 75,67.393"
         style="fill:none;fill-rule:evenodd;stroke:#3e3319;stroke-linecap:round"
         id="path203" /><path
         d="M 81.957245,51.156648 C 81.624245,51.489648 81.622788,57.144322 80.5,57.893"
         style="fill:none;fill-rule:evenodd;stroke:#3e3319;stroke-linecap:round"
         id="path207" /><path
         d="M 80.5,58.183974 C 80.387,61.121974 80.722,63.811 80.333,66.726"
         style="fill:none;fill-rule:evenodd;stroke:#3e3319;stroke-linecap:round"
         id="path209" /></g></g><path
     d=""
     style="fill:none;fill-rule:evenodd;stroke:#000000;stroke-linecap:round"
     id="path211" /><path
     d=""
     style="fill:none;fill-rule:evenodd;stroke:#000000;stroke-linecap:round"
     id="path213" /><path
     d=""
     style="fill:none;fill-rule:evenodd;stroke:#000000;stroke-linecap:round"
     id="path303" /><path
     d=""
     style="fill:none;fill-rule:evenodd;stroke:#000000;stroke-linecap:round"
     id="path305" /><path
     d=""
     style="fill:none;fill-rule:evenodd;stroke:#000000;stroke-linecap:round"
     id="path341" /><path
     d=""
     style="fill:none;fill-rule:evenodd;stroke:#000000;stroke-linecap:round"
     id="path343" /><g
     style="fill:#e6e6e6"
     id="prop"><path
       d="M 94.528,47.727461 C 94.528,46.727461 94.5,44.393 94.5,43.393 C 94.5,29.563 102.078,12.98 91,1.393 C 89.899,0.241 88.312,0.164 87,1.393 C 75.074,12.57 84.444,29.711 84.387,43.48 C 84.405,44.122 84.41,46.50578 84.491,47.94378"
       style="fill:#e6e6e6;fill-rule:evenodd;stroke:#000000;stroke-linecap:round"
       id="path47" /><path
       d="M 84.689776,58.342101 C 84.689776,59.342101 84.717776,61.676562 84.717776,62.676562 C 84.717776,76.506562 77.139776,93.089562 88.217776,104.67656 C 89.318776,105.82856 90.905776,105.90556 92.217776,104.67656 C 104.14377,93.499562 94.773776,76.358562 94.830776,62.589562 C 94.812776,61.947562 94.807776,59.563782 94.726776,58.125782"
       style="fill:#e6e6e6;fill-rule:evenodd;stroke:#000000;stroke-linecap:round"
       id="path2883" /><path
       d="M 88.026776,60.15413 C 90.140285,67.264037 101.63682,97.680808 90.597776,101.22513 C 89.74962,101.49745 88.974457,101.21385 88.025776,100.15413"
       style="fill:#e6e6e6;fill-rule:evenodd;stroke:#000000;stroke-linecap:round"
       id="path2881" /><path
       d="M 98.033998,52.997002 C 98.033998,56.910682 94.21211,60.087002 89.502998,60.087002 C 84.793886,60.087002 80.971998,56.910682 80.971998,52.997002 C 80.971998,49.083322 84.793886,45.907001 89.502998,45.907001 C 94.21211,45.907001 98.033998,49.083322 98.033998,52.997002 z "
       transform="matrix(0.8359526,0,0,1.0058549,14.806735,-0.3352937)"
       style="fill:#e6e6e6;fill-rule:evenodd;stroke:#000000;stroke-linecap:round"
       id="ellipse355" /><path
       d="M 93.190999,52.972 C 93.190999,54.939328 91.594327,56.536 89.626999,56.536 C 87.659671,56.536 86.062999,54.939328 86.062999,52.972 C 86.062999,51.004672 87.659671,49.408 89.626999,49.408 C 91.594327,49.408 93.190999,51.004672 93.190999,52.972 z "
       style="fill:#e6e6e6;fill-rule:evenodd;stroke:#000000;stroke-linecap:round"
       id="circle353" /><path
       d="M 91.191,45.957 C 89.077491,38.847093 77.580953,8.4303239 88.62,4.886 C 89.468156,4.6136814 90.243319,4.897286 91.192,5.957"
       style="fill:#e6e6e6;fill-rule:evenodd;stroke:#000000;stroke-linecap:round"
       id="path41" /></g></g></svg>